<svg width="22" height="29" viewBox="0 0 22 29" fill="none" xmlns="http://www.w3.org/2000/svg">
<path d="M4.91676 1.61181H17.0832C17.008 0.549763 16.3934 0 15.2395 0H6.748C5.59407 0 4.99202 0.549763 4.91676 1.61181ZM2.73432 5.07281H19.2531C19.065 3.9358 18.5257 3.31107 17.2714 3.31107H4.71608C3.4618 3.31107 2.92246 3.9358 2.73432 5.07281ZM3.93843 29H18.4379C20.683 29 22 27.7006 22 25.1267V10.9578C22 8.38389 20.6705 7.08445 18.0616 7.08445H3.93843C1.31699 7.08445 0 8.37139 0 10.9578V25.1267C0 27.7006 1.31699 29 3.93843 29Z" fill="#FFFBFB"/>
</svg>
