<svg width="23" height="29" viewBox="0 0 23 29" fill="none" xmlns="http://www.w3.org/2000/svg">
<path d="M0 25.3808C0 27.7897 1.15844 29 3.48655 29H14.0587C16.3868 29 17.5452 27.7782 17.5452 25.3808V23.2484H19.5134C21.8303 23.2484 23 22.0266 23 19.6292V10.2699C23 8.85215 22.7188 7.9531 21.8753 7.06558L16.1956 1.15262C15.3971 0.311208 14.4523 0 13.2489 0H8.94132C6.62445 0 5.45477 1.22178 5.45477 3.61924V5.75159H3.48655C1.16968 5.75159 0 6.96184 0 9.37083V25.3808ZM16.4768 13.3128L10.2797 6.84658C9.42494 5.94754 8.71638 5.75159 7.45672 5.75159H7.26553V3.65382C7.26553 2.51272 7.86161 1.85572 9.0313 1.85572H14.0024V7.76868C14.0024 9.10572 14.6323 9.73967 15.9257 9.73967H21.1892V19.5946C21.1892 20.7472 20.5819 21.3927 19.4122 21.3927H17.5452V16.3788C17.5452 14.9034 17.3765 14.2579 16.4768 13.3128ZM15.6333 7.49205V2.7663L20.7169 8.06836H16.1844C15.7907 8.06836 15.6333 7.89547 15.6333 7.49205ZM1.81076 25.3462V9.39388C1.81076 8.26431 2.40685 7.60731 3.57653 7.60731H7.26553V14.2925C7.26553 15.7448 7.98533 16.471 9.37995 16.471H15.7345V25.3462C15.7345 26.4988 15.1271 27.1443 13.9687 27.1443H3.56528C2.40685 27.1443 1.81076 26.4988 1.81076 25.3462ZM9.59364 14.7305C9.14377 14.7305 8.96381 14.5461 8.96381 14.0851V8.03378L15.3858 14.7305H9.59364Z" fill="#FFFBFB"/>
</svg>
