<svg width="23" height="28" viewBox="0 0 23 28" fill="none" xmlns="http://www.w3.org/2000/svg">
<path d="M19.0748 22.4467H19.5134C21.8191 22.4467 23 21.2671 23 18.9523V8.3911H16.7804C15.5995 8.3911 14.9359 7.7345 14.9359 6.57711V0H8.94132C6.65819 0 5.45477 1.17965 5.45477 3.40541V4.03975H7.08557C8.66015 4.03975 9.93105 4.39587 11.1907 5.64229L17.579 11.9523C18.8386 13.2099 19.0748 14.5008 19.0748 16.0143V22.4467ZM16.9941 7H22.865C22.8088 6.64388 22.5614 6.33227 22.1677 5.94277L17.4103 1.14626C17.0279 0.745628 16.7017 0.500795 16.3531 0.45628L16.3643 6.35453C16.3643 6.81081 16.533 7 16.9941 7ZM3.48655 28H14.0587C16.3868 28 17.5452 26.8203 17.5452 24.5056V15.7138H9.69487C8.24401 15.7138 7.56919 15.035 7.56919 13.6105V5.55326H3.48655C1.16968 5.55326 0 6.72178 0 9.0477V24.5056C0 26.8315 1.15844 28 3.48655 28ZM9.68362 14.1892H17.3428C17.2303 13.7552 16.9716 13.3545 16.4655 12.8426L10.4597 6.78855C9.96479 6.28776 9.53741 5.9539 9.09878 5.83148V13.6216C9.09878 14 9.30122 14.1892 9.68362 14.1892Z" fill="#FFFBFB"/>
</svg>
