<svg width="29" height="29" viewBox="0 0 29 29" fill="none" xmlns="http://www.w3.org/2000/svg">
<path d="M4.94623 29H24.0538C27.3618 29 29 27.3775 29 24.1325V4.88322C29 1.63824 27.3618 0 24.0538 0H4.94623C1.65399 0 0 1.63824 0 4.88322V24.1325C0 27.3775 1.65399 29 4.94623 29ZM10.7746 21.7382C9.92395 21.7382 9.49864 21.1554 9.49864 20.2732V8.41173C9.49864 7.5296 9.92395 6.94677 10.7746 6.94677H18.4617C19.0918 6.94677 19.5329 7.32482 19.5329 8.00217C19.5329 8.64802 19.0918 9.07333 18.4617 9.07333H12.0978V13.2162H18.0364C18.6665 13.2162 19.1076 13.5785 19.1076 14.2558C19.1076 14.8859 18.6665 15.2482 18.0364 15.2482H12.0978V19.6116H18.4617C19.0918 19.6116 19.5329 20.0054 19.5329 20.6828C19.5329 21.3286 19.0918 21.7382 18.4617 21.7382H10.7746Z" fill="#FFFBFB"/>
</svg>
