<svg xmlns="http://www.w3.org/2000/svg" width="24" height="24" viewBox="0 0 24 24" fill="#000000">
  <path d="M11.444,22.662 c0.704,0 1.262,-0.553 1.268,-1.257 l0.038,-7.67 3.099,-2.884 c1.289,0.097 2.6,-0.446 3.674,-1.547 l-6.467,-6.467 c-1.101,1.074 -1.628,2.379 -1.525,3.674 L1.583,17.173 c-0.473,0.505 -0.483,1.112 0.064,1.783 l-1.499,1.885 c-0.226,0.29 -0.193,0.693 0.086,0.978 l0.317,0.317 c0.279,0.285 0.687,0.322 0.999,0.07 L3.415,20.707 c0.666,0.553 1.268,0.532 1.767,0.064 l4.99,-4.635 v5.269 c0,0.704 0.564,1.257 1.273,1.257 z M3.259,18.172 L12.341,8.697 c0.161,0.258 0.354,0.5 0.58,0.736 c0.226,0.231 0.478,0.44 0.714,0.607 L4.204,19.112 Z M14.356,1.538 l6.467,6.472 c1.944,-1.891 2.132,-4.576 0.118,-6.59 -2.014,-1.998 -4.684,-1.821 -6.585,0.118 z" />
</svg>
