<svg xmlns="http://www.w3.org/2000/svg" width="24" height="24" viewBox="0 0 24 24" fill="#000000">
  <path fill-opacity="0.8" d="M13.635,5.068 v-4.015 c0,-0.703 -0.578,-1.167 -1.256,-1.029 L6.83,1.234 c-0.79,0.171 -1.224,0.619 -1.224,1.312 L5.621,14.413 c0.04,0.441 -0.156,0.71 -0.536,0.789 l-1.729,0.358 C1.102,16.029 0,17.206 0,18.962 c0,1.784 1.356,3.019 3.283,3.019 c1.904,0 4.178,-1.43 4.178,-4.457 V7.67 c0,-0.426 0.087,-0.534 0.465,-0.614 l4.967,-1.084 c0.454,-0.096 0.741,-0.454 0.741,-0.904 z" />
</svg>
